<?xml version="1.0" encoding="UTF-8"?>
<svg id="_图层_1" xmlns="http://www.w3.org/2000/svg" version="1.1" viewBox="0 0 1905.6 426.7">
  <!-- Generator: Adobe Illustrator 29.0.1, SVG Export Plug-In . SVG Version: 2.1.0 Build 192)  -->
  <defs>
    <style>
      .st0 {
        fill: #fbfcfd;
      }

      .st0, .st1, .st2, .st3, .st4 {
        fill-rule: evenodd;
      }

      .st1 {
        fill: #f4f7fa;
      }

      .st2 {
        fill: #3885b8;
      }

      .st2, .st3, .st4 {
        isolation: isolate;
      }

      .st3 {
        fill: #b6cee5;
        opacity: .9;
      }

      .st4 {
        fill: #0a3161;
      }
    </style>
  </defs>
  <path class="st4" d="M54.5,14.3c10,1.5,18.1,6.1,24.5,14,.4,1.8,1.4,3.1,3,4,2.9,7.5,5.4,15,7.5,22.5,4.7,2.3,9.7,3.6,15,4,11,4.7,19.2,12.5,24.5,23.5.5,2.6.7,5.3.5,8-14.3-.3-28.7,0-43,1-8.8,3.8-11.2,10.2-7,19,1.7,1.9,3.7,3.4,6,4.5,52,.7,104,.7,156,0,3.5-1,7-2.2,10.5-3.5,4.2-2.2,8.2-4.5,12-7,5.9,2.7,11.7,5.7,17.5,9,1.9.8,3.9,1.3,6,1.5,17.2.2,34.3.7,51.5,1.5,16.7,3.4,28.7,12.7,36,28,1.7,4.1,2.7,8.5,3,13,.7,53.3.7,106.7,0,160-.3,5.3-1.2,10.4-2.5,15.5-6.3,13.1-16.3,22.1-30,27-65,1.1-130,2-195,2.5-3.9.8-6.9,2.8-9,6-10.9,14.8-21.7,29.8-32.5,45-2,2.2-4.5,3.2-7.5,3,.2-17.3,0-34.7-.5-52-1.5-1.6-3.3-2.6-5.5-3-24.6-4-38.5-18.3-41.5-43-.8-101.4-.7-202.7.5-304h0Z"/>
  <path class="st2" d="M255.5,35.3c24.7-1.1,33.6,10.2,26.5,34-6.8,8.1-12.8,16.7-18,26-6.5-8.3-13-16.7-19.5-25-6.6-15.4-2.9-27.1,11-35Z"/>
  <path class="st1" d="M259.5,228.3c11.7.2,15.9,5.9,12.5,17-7.2,7.2-13.5,6.6-19-2-1.8-6.8.4-11.8,6.5-15Z"/>
  <path class="st4" d="M469.3,152.2h142.1v73.9h-29v-30.4h-13c1,28.6,1.4,57,1.4,85.5h13v43.5h-81.2c.3-14.5-.1-29-1.4-43.5h13c-1.2-28.6-1.6-57-1.4-85.5h-13v30.4h-29c.3-24.6-.3-49.3-1.4-73.9h-.1Z"/>
  <path class="st4" d="M920.2,152.2h66.7c-.6,20.9,0,41.6,2.2,62.3,17.5-13.9,36.5-16.7,57.3-8,9.6,7.7,15.1,17.5,16.7,29.7,1.7,15.9,2.5,31.9,2.2,47.8h11.6v40.6h-65.2c.3-21.7,0-43.5-.7-65.2,0-17.7-7.2-21.6-21.7-11.6-.7,12-1,24.2-.7,36.2h14.5v40.6h-79.7v-40.6h11.6c.3-30.4,0-60.9-1.4-91.3h-11.6c-1.3-13.5-1.7-27-1.4-40.6h-.4Z"/>
  <path class="st4" d="M1087,152.2h140.6c0,19.4.3,38.7.7,58-13.2,1.4-26.4,1.9-39.9,1.4v-15.9h-27.5v23.2h23.2c1.2,12.5,1.6,25.1,1.4,37.7h-24.6c-.3,8.3,0,16.5,1.4,24.6h15.9v43.5c-29,.4-58,0-87-1.4-1.4-13.9-1.9-28-1.4-42h14.5c0-28.6-.4-57-1.4-85.5h-14.5c0-14.5-.6-29-1.4-43.5h0Z"/>
  <path class="st4" d="M681,200c50.7-3.3,77.3,20.3,79.7,71-25.7-.4-51.2,0-76.8,1.4.9,7.1,3,13.9,6.5,20.3,7.2,5.9,13.9,5.5,20.3-1.4,1.4-2.2,2.2-4.6,2.2-7.2,15.1,1.6,30,3.6,44.9,5.8-3.6,17-13.8,28.3-30.4,34.1-22.2,5.8-43.9,4.3-65.2-4.3-22.9-15.2-32.9-36.7-29.7-64.5,4.2-29.1,20.4-47.4,48.6-55.1h0ZM694,229c5.2.3,9.4,2.8,12.3,7.2,2.2,5.7,3.3,11.5,3.6,17.4h-26.1c.7-5.9,1.9-11.7,3.6-17.4,1.4-3.2,3.6-5.7,6.5-7.2h.1Z"/>
  <path class="st4" d="M1297.2,200c28.7-4.1,53.2,4.1,73.2,24.6,16.4,26.5,16.4,53.2,0,79.7-19.3,19.9-42.6,27.4-70.3,22.5-43.6-10-61.8-37.4-54.4-81.9,8-25.7,25.2-40.6,51.5-44.9h0ZM1310.2,237.7c5.5-.1,10.1,1.7,13.8,5.8,6.1,12.8,6.7,25.8,1.4,39.1-12.2,10.9-20.9,8.4-26.1-7.2-1.3-9.3-.7-18.6,1.4-27.5,2-4.6,5.1-8,9.4-10.1h0Z"/>
  <path class="st4" d="M826,201.5c8.3-.3,16.4,0,24.6.7,6.1,1,11.6,3.2,16.7,6.5.7-1.9,1-3.8.7-5.8h34.8v53.6c-11.2.4-22.3,0-33.3-1.4-2.3-5.4-5.2-10.4-8.7-15.2-11.3-6.1-19.3-2.9-23.9,9.4-4.5,14.5-2.3,27.8,6.5,39.9,14.4,5.9,22.3.9,23.9-15.2,1-.9,2.3-1.3,3.6-1.4,12.2,3.2,24.2,6.5,36.2,10.1-2.2,22.8-14.8,37.1-37.7,42.8-28.3,7-53.2,1-74.7-18.1-18.7-27.4-19.7-55.5-2.9-84.1,9-11.2,20.4-18.4,34.1-21.7h.1Z"/>
  <path class="st4" d="M1448,201.5c8.3-.3,16.4,0,24.6.7,6.1,1,11.6,3.2,16.7,6.5.7-1.9,1-3.8.7-5.8h34.8v53.6c-11.2.4-22.3,0-33.3-1.4-2.3-5.4-5.2-10.4-8.7-15.2-11.3-6.1-19.3-2.9-23.9,9.4-4.5,14.5-2.3,27.8,6.5,39.9,14.4,5.9,22.3.9,23.9-15.2,1-.9,2.3-1.3,3.6-1.4,12.2,3.2,24.2,6.5,36.2,10.1-2.2,22.8-14.8,37.1-37.7,42.8-28.3,7-53.2,1-74.7-18.1-18.7-27.4-19.7-55.5-2.9-84.1,9-11.2,20.4-18.4,34.1-21.7h.1Z"/>
  <path class="st4" d="M1745.2,201.5c8.3-.3,16.4,0,24.6.7,4.9.9,9.6,2.5,13.8,5.1.7-1.3,1-2.8.7-4.3h34.8v37.7c-10.6.3-21.3,0-31.9-.7-5.9-7.5-13.6-11.6-23.2-12.3-5.5,0-8.7,2.3-9.4,7.2,15.5,5.4,31.3,10.4,47.1,15.2,17.1,6.4,25.4,18.7,24.6,37,.6,22.3-10,35.5-31.9,39.9-13.6,2-26.7.4-39.1-5.1-1.3,1.2-1.7,2.6-1.4,4.3h-34.8v-40.6c10.6-.3,21.3,0,31.9.7,7.2,9.9,17,14.2,29,13,5.9-1.6,7-4.5,2.9-8.7-18.4-5.4-36.4-12.2-53.6-20.3-10.3-7.5-15.1-17.7-14.5-30.4.3-20.7,10.4-33.6,30.4-38.4h0Z"/>
  <path class="st4" d="M1543.7,202.9h65.2c-.3,20.3,0,40.6.7,60.9-1.6,19,5.9,24.2,22.5,15.9,1-12,1-24.1,0-36.2h-13v-40.6h66.7c0,27.1.4,54.1,1.4,81.2h11.6v40.6h-65.2c.3-3.9,0-7.8-.7-11.6-14.9,13.3-32,17.4-51.5,12.3-14.6-7.1-22.6-19-23.9-35.5-1.2-15.5-1.9-30.9-2.2-46.4h-11.6v-40.6h0Z"/>
  <path class="st0" d="M207.5,289.3c3.7-.5,7.3-1,11-1.5,40.8-.2,81.5-.7,122-1.5,3.6-.3,7.1-1,10.5-2,2.7-2.2,5.5-4.2,8.5-6,1.2,14,1.3,28,.5,42-2.8,12.1-9.9,20.6-21.5,25.5-60.7.5-121.3.7-182,.5,0-1.8.5-3.5,1.5-5,9.7-11.8,18.7-24.1,27-37,3.9-4.2,8-8,12.5-11.5,3.1-1.9,6.4-3,10-3.5Z"/>
  <path class="st3" d="M340.5,286.3c-40.5.8-81.2,1.3-122,1.5-3.7.5-7.3,1-11,1.5,1.6-1.4,3.6-2.3,6-2.5,42.3-.5,84.7-.7,127-.5Z"/>
</svg>