<?xml version="1.0" standalone="no"?>
<!DOCTYPE svg PUBLIC "-//W3C//DTD SVG 20010904//EN"
 "http://www.w3.org/TR/2001/REC-SVG-20010904/DTD/svg10.dtd">
<svg version="1.0" xmlns="http://www.w3.org/2000/svg"
 width="1024.000000pt" height="1024.000000pt" viewBox="0 0 1024.000000 1024.000000"
 preserveAspectRatio="xMidYMid meet">

<g transform="translate(0.000000,1024.000000) scale(0.100000,-0.100000)"
fill="#000000" stroke="none">
<path d="M3380 6308 c0 -1153 3 -1630 11 -1677 37 -215 214 -389 433 -423 l76
-12 2 -305 3 -304 70 96 c39 52 77 105 85 117 34 49 85 115 93 118 4 2 7 8 7
13 0 5 41 63 90 128 50 66 90 124 90 130 0 7 329 11 1053 13 1005 3 1054 4
1105 22 28 10 52 23 52 28 0 5 4 7 9 4 14 -9 111 60 162 115 59 62 114 174
128 260 7 44 11 336 11 885 0 885 -1 893 -54 1011 -14 30 -30 52 -36 48 -5 -3
-7 0 -4 9 8 22 -113 137 -177 169 -123 60 -123 60 -439 67 -162 3 -304 10
-315 15 -81 33 -115 52 -151 81 -40 32 -42 33 -59 14 -26 -29 -144 -87 -203
-99 -36 -8 -314 -11 -886 -11 l-833 0 -33 23 c-63 43 -86 119 -55 188 37 85
53 89 336 89 155 0 229 3 229 11 0 34 -61 131 -119 189 -52 52 -82 73 -144 98
-42 18 -104 35 -136 38 l-58 7 -6 56 c-8 74 -33 145 -70 201 -41 62 -88 110
-100 103 -6 -3 -7 -1 -4 5 9 14 -121 92 -153 92 -6 0 -10 -597 -10 -1612z
m2316 -713 c58 -44 64 -120 16 -172 -15 -16 -26 -30 -25 -33 3 -12 -115 6
-131 20 -66 54 -57 157 16 193 47 23 86 21 124 -8z m974 -982 c-15 -69 -77
-163 -134 -202 -102 -70 -26 -66 -1103 -69 -535 -1 -973 0 -973 4 0 14 324
449 383 514 65 72 167 116 300 130 51 5 373 10 717 10 693 0 698 1 773 63 l42
35 3 -217 c1 -127 -2 -237 -8 -268z"/>
<path d="M4940 3302 c-6 -2 -10 -35 -10 -73 0 -69 0 -69 28 -69 l27 0 -2 -212
-2 -213 -26 -3 c-25 -3 -26 -5 -23 -70 l3 -67 208 -3 207 -2 0 69 0 70 -57 3
-58 3 -3 83 -3 82 71 0 70 0 0 50 0 50 -57 1 c-32 1 -64 1 -70 0 -10 -1 -13
20 -13 79 l0 81 48 -3 c46 -3 47 -3 47 -38 l1 -35 77 -3 77 -3 0 110 0 110
-265 3 c-146 2 -270 2 -275 0z"/>
<path d="M2560 3195 l0 -105 75 0 75 0 0 38 c0 38 0 38 35 34 l35 -4 -2 -212
-3 -211 -32 0 -33 0 0 -72 0 -73 189 0 189 0 4 70 3 70 -32 0 -33 0 0 215 0
215 35 0 c33 0 35 -2 35 -35 l0 -35 75 0 75 0 0 105 0 105 -345 0 -345 0 0
-105z"/>
<path d="M4280 3230 c0 -63 2 -70 20 -70 19 0 20 -7 20 -215 0 -208 -1 -215
-20 -215 -18 0 -20 -7 -20 -70 l0 -70 145 0 146 0 -3 73 c-3 62 -5 72 -20 69
-16 -3 -18 8 -18 102 l0 104 29 10 c42 15 68 5 80 -30 20 -56 8 -188 -15 -188
-11 0 -14 -18 -14 -70 l0 -70 140 0 140 0 0 69 c0 62 -2 70 -20 73 -19 3 -21
11 -23 143 -2 138 -2 141 -31 178 -28 36 -78 75 -61 47 6 -9 3 -9 -13 -1 -26
14 -82 14 -117 1 -14 -5 -39 -24 -56 -41 -17 -17 -33 -29 -36 -26 -3 3 -4 64
-4 136 l2 131 -126 0 -125 0 0 -70z"/>
<path d="M3367 3096 c-73 -27 -150 -107 -131 -138 4 -6 3 -8 -4 -4 -15 9 -26
-73 -18 -145 10 -101 47 -154 136 -197 49 -24 66 -27 150 -26 63 1 114 8 150
20 l55 19 3 71 3 71 -68 -15 c-79 -16 -191 -11 -204 9 -5 8 -9 24 -9 37 0 22
1 22 150 22 l150 0 -1 53 c-1 101 -41 176 -113 212 -41 21 -64 25 -130 25 -45
-1 -98 -7 -119 -14z m174 -143 c3 -18 4 -35 1 -38 -8 -8 -110 -6 -116 3 -2 4
2 22 10 40 13 31 16 33 56 30 39 -3 43 -6 49 -35z"/>
<path d="M3922 3099 c-20 -6 -30 -14 -26 -21 4 -7 3 -8 -5 -4 -18 12 -78 -40
-103 -87 -26 -52 -35 -157 -18 -227 22 -94 103 -157 222 -175 49 -7 183 8 222
26 24 11 26 17 26 76 l0 65 -92 -7 c-51 -4 -95 -8 -98 -8 -16 -1 -58 24 -64
38 -3 9 -6 49 -6 89 0 66 2 74 24 85 25 14 65 7 78 -13 4 -6 8 -21 8 -33 0
-22 4 -23 75 -23 l75 0 0 89 0 89 -47 23 c-38 19 -68 24 -143 26 -52 1 -110
-2 -128 -8z"/>
<path d="M5655 3101 c-11 -4 -35 -13 -53 -20 -40 -16 -104 -95 -95 -118 4 -10
2 -14 -5 -9 -15 9 -26 -71 -19 -143 13 -145 109 -224 272 -225 122 0 202 41
248 129 31 59 31 213 0 270 -47 88 -105 118 -233 121 -52 2 -104 0 -115 -5z
m137 -158 c24 -22 26 -163 2 -187 -20 -20 -68 -21 -84 -1 -20 24 -16 162 6
186 21 23 51 24 76 2z"/>
<path d="M6226 3095 c-56 -20 -87 -45 -120 -98 -35 -56 -46 -155 -26 -238 17
-70 83 -139 155 -160 60 -17 191 -16 260 3 l50 13 1 68 2 67 -102 -6 c-88 -6
-106 -4 -129 11 -25 16 -27 22 -27 95 0 62 4 80 18 93 37 34 92 13 92 -33 l0
-30 78 0 77 0 -5 92 c-3 51 -9 91 -14 90 -5 -2 -12 1 -15 6 -24 37 -217 55
-295 27z"/>
<path d="M7356 3100 c-109 -33 -153 -139 -100 -241 16 -31 80 -64 144 -74 60
-9 92 -30 88 -58 -2 -12 -12 -23 -23 -26 -11 -2 -23 -8 -27 -15 -6 -8 -8 -7
-8 2 0 6 -9 12 -20 12 -12 0 -25 10 -32 25 -11 24 -15 26 -77 23 l-66 -3 0
-65 0 -65 55 -13 c30 -7 98 -14 150 -15 83 -1 101 1 145 23 66 33 100 95 90
164 -4 25 -11 43 -16 40 -5 -3 -7 1 -4 8 11 32 -62 77 -153 97 -74 16 -92 27
-90 56 2 22 7 25 46 25 35 0 45 -4 49 -20 5 -18 14 -20 74 -20 l69 0 0 60 0
59 -52 16 c-55 16 -194 19 -242 5z"/>
<path d="M6590 3030 c0 -62 2 -70 19 -70 18 0 20 -10 23 -137 4 -162 12 -187
78 -221 64 -33 148 -18 208 38 29 27 32 25 32 -15 l0 -35 125 0 125 0 0 54 c0
67 -7 86 -31 86 -18 0 -19 10 -19 185 l0 185 -125 0 -125 0 0 -70 c0 -68 1
-70 25 -70 25 0 25 0 25 -93 0 -59 -5 -99 -12 -110 -19 -24 -60 -30 -83 -13
-18 13 -20 28 -23 185 l-3 171 -120 0 -119 0 0 -70z"/>
</g>
</svg>
